# xmcd
#
# Track frame offsets:
#	150
#	12965
#	25657
#	41897
#	55342
#	68872
#	83920
#	98730
#	114617
#	129170
#	143492
#	159187
#	173817
#	185485
#	198342
#	210677
#	221355
#	233002
#	243555
#	255335
#
# Disc length: 3561 seconds
#
# Revision: 1
# Processed by: cddbd v1.4b41PL2 Copyright (c) Steve Scherf et al.
# Submitted via: audiograbber 1.80
#
DISCID=080de714
DTITLE=Diane Horner - All Time Country Line Dance Favorites
DYEAR=1900
DGENRE=
TTITLE0=If The Devil Danced In Empty Pockets
TTITLE1=Im In A Hurry (And Don't Know Why)
TTITLE2=Queen Of Memphis
TTITLE3=Burn Me Down
TTITLE4=Papa Loved Mama
TTITLE5=Wild Man
TTITLE6=Baby's Got Her Blue Jeans On
TTITLE7=A Jukebox With A Country Song
TTITLE8=Leavin's Been A Long Time Comin'
TTITLE9=Gonna Take A Lot Of River
TTITLE10=Oh Girl You Know Where To Find Me
TTITLE11=Bubba Shot The Jukebox
TTITLE12=Whatcha Going To Do With A Cowboy
TTITLE13=My Next Broken Heart
TTITLE14=What Part Of No
TTITLE15=One More Payment
TTITLE16=I Want You Bad (And That Ain't Good)
TTITLE17=Against The Grain
TTITLE18=Boom! It Was Over Just Like That
TTITLE19=The Whiskey Ain't Workin'
EXTD=
EXTT0=
EXTT1=
EXTT2=
EXTT3=
EXTT4=
EXTT5=
EXTT6=
EXTT7=
EXTT8=
EXTT9=
EXTT10=
EXTT11=
EXTT12=
EXTT13=
EXTT14=
EXTT15=
EXTT16=
EXTT17=
EXTT18=
EXTT19=
PLAYORDER=
